<svg width="1024" height="1024" viewBox="0 0 1024 1024" fill="none" xmlns="http://www.w3.org/2000/svg">
<circle cx="512" cy="512" r="512" fill="url(#paint0_linear_19873_48328)"/>
<g clip-path="url(#clip0_19873_48328)">
<path d="M769.481 352.616L517.045 482.894C513.988 484.472 510.357 484.473 507.299 482.897L253.26 352.024C245.56 348.057 245.58 337.041 253.293 333.102L506.604 203.734C509.648 202.179 513.254 202.183 516.296 203.744L769.461 333.708C777.154 337.658 777.166 348.651 769.481 352.616Z" fill="#C7EE00"/>
<path d="M231.721 693.351L470.523 817.796C477.602 821.485 486.07 816.349 486.07 808.367V534.689C486.07 530.71 483.848 527.063 480.311 525.239L241.509 402.083C234.432 398.433 226.002 403.571 226.002 411.533V683.921C226.002 687.885 228.206 691.519 231.721 693.351Z" fill="#C7EE00"/>
<path fill-rule="evenodd" clip-rule="evenodd" d="M407.942 702.425C411.718 711.914 401.617 720.961 392.6 716.165L378.77 708.809C376.479 707.591 374.694 705.599 373.732 703.189L350.299 644.44L328.458 672.542C325.216 676.713 319.463 677.981 314.769 675.559L299.753 667.813C293.643 664.661 291.905 656.729 296.138 651.312L333.809 603.098L298.674 515.01C294.912 505.578 304.882 496.539 313.901 501.204L327.836 508.412C330.182 509.625 332.011 511.644 332.988 514.098L356.733 573.759L378.878 545.415C382.125 541.26 387.87 540.003 392.555 542.423L407.255 550.016C413.351 553.165 415.092 561.074 410.882 566.492L373.158 615.029L407.942 702.425Z" fill="#111111"/>
<path d="M792.263 693.312L553.461 817.757C546.382 821.446 537.914 816.31 537.914 808.328V534.65C537.914 530.671 540.136 527.024 543.673 525.2L782.476 402.044C789.553 398.394 797.982 403.532 797.982 411.494V683.882C797.982 687.846 795.778 691.48 792.263 693.312Z" fill="#C7EE00"/>
<path fill-rule="evenodd" clip-rule="evenodd" d="M538.884 267.427C542.083 265.777 545.889 265.802 549.066 267.494L566.566 276.812C574.375 280.97 574.302 292.187 566.439 296.242L414.9 374.393C411.701 376.043 407.896 376.018 404.718 374.326L387.218 365.008C379.409 360.85 379.482 349.633 387.345 345.578L538.884 267.427ZM617.379 306.68C620.579 305.028 624.386 305.053 627.565 306.745L645.071 316.066C652.878 320.223 652.807 331.437 644.947 335.494L491.571 414.664C488.371 416.316 484.564 416.292 481.385 414.6L463.879 405.279C456.072 401.122 456.143 389.908 464.003 385.85L617.379 306.68Z" fill="#111111"/>
<path fill-rule="evenodd" clip-rule="evenodd" d="M688.311 518.644C688.311 510.565 679.873 505.258 672.591 508.758L655.877 516.791C652.077 518.618 649.66 522.461 649.66 526.677V598.94L584.559 630.229C580.759 632.055 578.342 635.898 578.342 640.115L578.342 658.659C578.342 666.738 586.78 672.045 594.062 668.545L649.66 641.823V703.523C649.66 711.603 658.098 716.909 665.38 713.409L682.094 705.376C685.894 703.55 688.311 699.707 688.311 695.49V623.247L753.454 591.938C757.254 590.111 759.671 586.268 759.671 582.052V563.507C759.671 555.428 751.232 550.122 743.951 553.621L688.311 580.363V518.644Z" fill="#111111"/>
</g>
<defs>
<linearGradient id="paint0_linear_19873_48328" x1="785.158" y1="32.0811" x2="281.802" y2="1024" gradientUnits="userSpaceOnUse">
<stop stop-color="#2E3411"/>
<stop offset="1" stop-color="#13130E"/>
</linearGradient>
<clipPath id="clip0_19873_48328">
<rect width="624.64" height="624.64" fill="white" transform="translate(199.68 201.262)"/>
</clipPath>
</defs>
</svg>
