<svg width="1024" height="1024" viewBox="0 0 1024 1024" fill="none" xmlns="http://www.w3.org/2000/svg">
<circle cx="512" cy="512" r="512" fill="#111111"/>
<path d="M791.081 337.982L517.463 479.194C514.15 480.904 510.214 480.906 506.899 479.198L231.544 337.34C223.198 333.04 223.219 321.1 231.58 316.83L506.146 176.604C509.446 174.919 513.355 174.923 516.651 176.615L791.059 317.487C799.398 321.768 799.411 333.683 791.081 337.982Z" fill="#C7EE00"/>
<path d="M208.199 707.311L467.039 842.201C474.712 846.2 483.891 840.633 483.891 831.981V535.333C483.891 531.02 481.482 527.067 477.648 525.09L218.809 391.597C211.138 387.641 202 393.21 202 401.84V697.091C202 701.386 204.39 705.326 208.199 707.311Z" fill="#C7EE00"/>
<path fill-rule="evenodd" clip-rule="evenodd" d="M403.81 717.147C407.903 727.433 396.954 737.239 387.181 732.041L372.19 724.068C369.707 722.747 367.772 720.588 366.73 717.976L341.34 654.319L317.685 684.755C314.172 689.275 307.936 690.65 302.848 688.025L286.572 679.628C279.949 676.212 278.066 667.615 282.654 661.743L323.466 609.507L285.373 514.003C281.296 503.779 292.102 493.981 301.878 499.038L316.982 506.85C319.525 508.165 321.508 510.354 322.567 513.014L348.313 577.705L372.337 546.958C375.856 542.454 382.082 541.092 387.161 543.715L403.094 551.945C409.702 555.358 411.589 563.932 407.025 569.804L366.117 622.439L403.81 717.147Z" fill="#111111"/>
<path d="M815.801 707.273L556.961 842.163C549.288 846.162 540.109 840.595 540.109 831.943V535.295C540.109 530.981 542.518 527.029 546.352 525.052L805.191 391.559C812.862 387.603 822 393.172 822 401.802V697.052C822 701.348 819.61 705.288 815.801 707.273Z" fill="#C7EE00"/>
<path fill-rule="evenodd" clip-rule="evenodd" d="M541.139 245.642C544.607 243.853 548.731 243.88 552.175 245.714L571.144 255.814C579.608 260.321 579.529 272.479 571.006 276.875L406.752 361.585C403.284 363.374 399.159 363.347 395.715 361.513L376.747 351.413C368.282 346.906 368.362 334.748 376.885 330.352L541.139 245.642ZM626.24 288.196C629.708 286.406 633.835 286.432 637.28 288.267L656.256 298.37C664.718 302.876 664.641 315.031 656.121 319.429L489.876 405.244C486.408 407.035 482.281 407.008 478.836 405.174L459.86 395.07C451.398 390.564 451.475 378.409 459.995 374.012L626.24 288.196Z" fill="#111111"/>
<path fill-rule="evenodd" clip-rule="evenodd" d="M703.104 517.949C703.104 509.191 693.958 503.44 686.065 507.233L667.949 515.94C663.83 517.92 661.21 522.086 661.21 526.656V604.963L590.618 638.892C586.499 640.872 583.879 645.038 583.879 649.608L583.879 669.709C583.879 678.466 593.025 684.218 600.918 680.424L661.21 651.446V718.345C661.21 727.102 670.357 732.854 678.249 729.061L696.366 720.353C700.485 718.373 703.104 714.208 703.104 709.638V631.31L773.684 597.387C777.803 595.408 780.423 591.242 780.423 586.672V566.571C780.423 557.813 771.277 552.062 763.384 555.855L703.104 584.827V517.949Z" fill="#111111"/>
</svg>
