<svg width="1024" height="1024" viewBox="0 0 1024 1024" fill="none" xmlns="http://www.w3.org/2000/svg">
<g clip-path="url(#clip0_19836_47736)">
<path d="M175.779 459.94L94.1333 502.076C93.1446 502.586 91.9702 502.586 90.9812 502.077L8.81755 459.748C6.3272 458.466 6.3335 454.903 8.82836 453.629L90.7564 411.787C91.7411 411.284 92.9075 411.286 93.8911 411.791L175.772 453.825C178.261 455.102 178.264 458.657 175.779 459.94Z" fill="#C7EE00"/>
<path d="M1.8492 570.143L79.085 610.392C81.3745 611.585 84.1133 609.924 84.1133 607.342V518.827C84.1133 517.54 83.3945 516.36 82.2506 515.77L5.0148 475.938C2.72594 474.758 -0.000526428 476.419 -0.000526428 478.995V567.093C-0.000526428 568.375 0.712425 569.55 1.8492 570.143Z" fill="#C7EE00"/>
<path fill-rule="evenodd" clip-rule="evenodd" d="M60.2055 573.08C61.4269 576.149 58.1599 579.075 55.2436 577.524L50.7704 575.145C50.0294 574.751 49.4521 574.107 49.1412 573.327L41.5643 554.331L34.5048 563.414C33.4564 564.763 31.5956 565.173 30.0774 564.39L25.2207 561.885C23.2445 560.865 22.6826 558.3 24.0516 556.548L36.2309 540.96L24.865 512.465C23.6483 509.414 26.8727 506.491 29.7899 507.999L34.2969 510.331C35.0557 510.723 35.6473 511.376 35.9632 512.17L43.645 531.471L50.8123 522.298C51.8624 520.954 53.7203 520.547 55.2357 521.33L59.9901 523.786C61.9618 524.804 62.5249 527.363 61.1631 529.115L48.9575 544.819L60.2055 573.08Z" fill="#111111"/>
<path d="M183.143 570.13L105.907 610.379C103.618 611.572 100.879 609.911 100.879 607.33V518.814C100.879 517.527 101.598 516.348 102.742 515.758L179.977 475.925C182.266 474.745 184.993 476.407 184.993 478.982V567.08C184.993 568.362 184.28 569.538 183.143 570.13Z" fill="#C7EE00"/>
<path fill-rule="evenodd" clip-rule="evenodd" d="M101.199 432.384C102.234 431.85 103.465 431.858 104.492 432.405L110.152 435.419C112.678 436.764 112.654 440.392 110.111 441.703L61.0992 466.98C60.0644 467.513 58.8337 467.505 57.806 466.958L52.1459 463.945C49.6202 462.6 49.644 458.972 52.1871 457.66L101.199 432.384ZM126.591 445.084C127.626 444.549 128.857 444.557 129.885 445.105L135.547 448.119C138.073 449.464 138.049 453.091 135.507 454.403L85.9012 480.009C84.8662 480.543 83.6349 480.535 82.6068 479.988L76.9448 476.973C74.4196 475.629 74.4427 472.002 76.9848 470.69L126.591 445.084Z" fill="#111111"/>
<path fill-rule="evenodd" clip-rule="evenodd" d="M149.518 513.638C149.518 511.025 146.789 509.309 144.434 510.44L139.028 513.039C137.799 513.629 137.017 514.872 137.017 516.236V539.606L115.96 549.727C114.731 550.317 113.949 551.56 113.949 552.924V558.922C113.949 561.535 116.678 563.251 119.033 562.119L137.017 553.476V573.433C137.017 576.046 139.746 577.763 142.101 576.631L147.507 574.033C148.736 573.442 149.518 572.199 149.518 570.835V547.468L170.586 537.342C171.815 536.752 172.596 535.509 172.596 534.145V528.147C172.596 525.534 169.867 523.818 167.512 524.95L149.518 533.598V513.638Z" fill="#111111"/>
<path d="M274.292 520.875V546.029H335.777V565.121H252.336V459.052H335.777V478.145H274.292V502.389V520.875Z" fill="#C7EE00"/>
<path d="M458.583 512.077C458.583 527.23 452.526 540.867 442.381 550.717L457.508 566.779H431.248L426.785 561.475C419.365 564.96 411.037 566.779 402.406 566.779C370.759 566.779 346.38 542.383 346.38 512.077C346.38 481.772 370.759 457.376 402.406 457.376C434.507 457.376 458.583 482.075 458.583 512.077ZM368.942 512.077C368.942 531.624 383.327 546.625 402.406 546.625C406.191 546.625 410.128 546.019 413.308 544.807L397.947 527.427H423.412L428.905 533.746C433.296 528.139 436.021 520.411 436.021 512.077C436.021 492.227 421.333 477.529 402.406 477.529C383.478 477.529 368.942 492.379 368.942 512.077Z" fill="#C7EE00"/>
<path d="M563.262 519.208C563.262 548.15 544.94 566.636 516.321 566.636C487.854 566.636 469.381 548.453 469.381 519.208V459.052H491.337V519.208C491.337 535.573 501.33 546.332 516.473 546.332C531.615 546.332 541.306 535.573 541.306 519.208V459.052H563.262V519.208Z" fill="#C7EE00"/>
<path d="M645.014 542.489H601.253L590.351 564.923H567.487L611.096 458.855H636.534L679.538 564.923H655.765L645.014 542.489ZM608.067 524.912H638.351L623.361 480.371L608.067 524.912Z" fill="#C7EE00"/>
<path d="M728.79 478.25H706.834H671.099V458.855H763.996V478.25H728.79Z" fill="#C7EE00"/>
<path d="M774.59 458.855H796.546V564.923H774.59V458.855Z" fill="#C7EE00"/>
<path d="M919.374 511.922C919.374 541.924 895.298 566.623 863.197 566.623C831.55 566.623 807.171 542.227 807.171 511.922C807.171 481.616 831.55 457.221 863.197 457.221C895.298 457.221 919.374 481.92 919.374 511.922ZM829.733 511.922C829.733 531.469 844.118 546.47 863.197 546.47C882.276 546.47 896.812 531.62 896.812 511.922C896.812 492.072 882.124 477.374 863.197 477.374C844.269 477.374 829.733 492.223 829.733 511.922Z" fill="#C7EE00"/>
<path d="M950.835 458.855L1003.53 527.496V458.855H1024.12V564.923H1004.74L950.683 494.009V564.923H929.939V458.855H950.835Z" fill="#C7EE00"/>
<path d="M269.602 521.418L269.602 502.356L324.317 502.356L324.317 521.419L269.602 521.418Z" fill="#C7EE00"/>
<path d="M706.689 477.812H728.613V564.762L706.688 564.762L706.689 477.812Z" fill="#C7EE00"/>
</g>
<defs>
<clipPath id="clip0_19836_47736">
<rect width="1024" height="1024" fill="white"/>
</clipPath>
</defs>
</svg>
