<svg width="1024" height="1024" viewBox="0 0 1024 1024" fill="none" xmlns="http://www.w3.org/2000/svg">
<path d="M934.107 248.129L520.276 461.699C515.265 464.285 509.312 464.287 504.299 461.704L87.8424 247.157C75.2198 240.654 75.2517 222.596 87.8973 216.138L503.16 4.05946C508.151 1.51051 514.063 1.51671 519.049 4.07613L934.074 217.132C946.686 223.606 946.705 241.627 934.107 248.129Z" fill="#111111"/>
<path d="M52.5458 806.709L444.025 1010.72C455.63 1016.77 469.512 1008.35 469.512 995.26V546.609C469.512 540.085 465.869 534.107 460.07 531.117L68.5911 329.221C56.9897 323.238 43.1702 331.66 43.1702 344.714V791.251C43.1702 797.749 46.7839 803.707 52.5458 806.709Z" fill="#C7EE00"/>
<path fill-rule="evenodd" clip-rule="evenodd" d="M341.406 821.59C347.597 837.145 331.038 851.976 316.256 844.114L293.584 832.056C289.828 830.058 286.901 826.793 285.325 822.842L246.917 726.548L211.121 772.604C205.807 779.441 196.376 781.519 188.68 777.55L164.063 764.851C154.047 759.683 151.199 746.681 158.138 737.8L219.884 658.773L162.279 514.352C156.111 498.89 172.455 484.071 187.241 491.719L210.085 503.534C213.931 505.524 216.93 508.834 218.531 512.857L257.463 610.677L293.778 564.199C299.1 557.387 308.518 555.326 316.199 559.294L340.297 571.741C350.29 576.903 353.145 589.87 346.242 598.751L284.39 678.333L341.406 821.59Z" fill="#111111"/>
<path d="M971.454 806.651L579.975 1010.66C568.37 1016.71 554.488 1008.29 554.488 995.202V546.55C554.488 540.026 558.131 534.048 563.93 531.058L955.409 329.163C967.01 323.18 980.83 331.602 980.83 344.655V791.193C980.83 797.69 977.216 803.648 971.454 806.651Z" fill="#C7EE00"/>
<path fill-rule="evenodd" clip-rule="evenodd" d="M556.069 108.477C561.314 105.772 567.553 105.813 572.762 108.586L601.45 123.861C614.252 130.677 614.132 149.066 601.241 155.714L352.818 283.83C347.573 286.535 341.334 286.494 336.125 283.721L307.437 268.446C294.635 261.63 294.755 243.241 307.646 236.593L556.069 108.477ZM684.751 172.834C689.997 170.126 696.238 170.166 701.449 172.941L730.147 188.221C742.947 195.036 742.829 213.419 729.944 220.071L478.509 349.858C473.263 352.566 467.022 352.526 461.811 349.751L433.113 334.471C420.313 327.656 420.431 309.273 433.316 302.621L684.751 172.834Z" fill="#C7EE00"/>
<path fill-rule="evenodd" clip-rule="evenodd" d="M801.044 520.312C801.044 507.068 787.211 498.368 775.273 504.105L747.873 517.275C741.643 520.269 737.681 526.569 737.681 533.481V651.933L630.946 703.232C624.716 706.227 620.754 712.527 620.754 719.439L620.754 749.84C620.754 763.084 634.587 771.783 646.524 766.046L737.681 722.234V823.393C737.681 836.637 751.514 845.336 763.451 839.599L790.852 826.43C797.082 823.436 801.044 817.136 801.044 810.224V691.78L907.822 640.46C914.052 637.466 918.014 631.166 918.014 624.254V593.853C918.014 580.609 904.181 571.909 892.244 577.646L801.044 621.479V520.312Z" fill="#111111"/>
</svg>
